<mxfile host="app.diagrams.net" modified="2021-06-01T10:36:15.598Z" agent="5.0 (Windows NT 10.0; Win64; x64) AppleWebKit/537.36 (KHTML, like Gecko) Chrome/91.0.4472.77 Safari/537.36" etag="xBjFQdJfT460GcKjTk3t" version="14.7.3" type="github">
  <diagram id="NptEhzaBxHAzJ70jj5If" name="Page-1">
    <mxGraphModel dx="1837" dy="2199" grid="1" gridSize="10" guides="1" tooltips="1" connect="1" arrows="1" fold="1" page="1" pageScale="1" pageWidth="827" pageHeight="1169" math="0" shadow="0">
      <root>
        <mxCell id="0" />
        <mxCell id="1" parent="0" />
        <mxCell id="UrY2LdwK449eEktK6sRG-1" value="" style="ellipse;whiteSpace=wrap;html=1;aspect=fixed;fillColor=#000000;" vertex="1" parent="1">
          <mxGeometry x="400" y="-1120" width="80" height="80" as="geometry" />
        </mxCell>
        <mxCell id="UrY2LdwK449eEktK6sRG-2" value="" style="endArrow=none;html=1;entryX=0.5;entryY=1;entryDx=0;entryDy=0;entryPerimeter=0;" edge="1" parent="1" target="UrY2LdwK449eEktK6sRG-1">
          <mxGeometry width="50" height="50" relative="1" as="geometry">
            <mxPoint x="440" y="-950" as="sourcePoint" />
            <mxPoint x="430" y="-1020" as="targetPoint" />
          </mxGeometry>
        </mxCell>
        <mxCell id="UrY2LdwK449eEktK6sRG-3" style="edgeStyle=orthogonalEdgeStyle;rounded=0;orthogonalLoop=1;jettySize=auto;html=1;exitX=0;exitY=0.5;exitDx=0;exitDy=0;entryX=1;entryY=0.5;entryDx=0;entryDy=0;" edge="1" parent="1" source="UrY2LdwK449eEktK6sRG-5">
          <mxGeometry relative="1" as="geometry">
            <mxPoint x="370" y="-920" as="targetPoint" />
          </mxGeometry>
        </mxCell>
        <mxCell id="UrY2LdwK449eEktK6sRG-4" style="edgeStyle=orthogonalEdgeStyle;rounded=0;orthogonalLoop=1;jettySize=auto;html=1;exitX=0.5;exitY=1;exitDx=0;exitDy=0;entryX=0.5;entryY=0;entryDx=0;entryDy=0;" edge="1" parent="1" source="UrY2LdwK449eEktK6sRG-5" target="UrY2LdwK449eEktK6sRG-8">
          <mxGeometry relative="1" as="geometry" />
        </mxCell>
        <mxCell id="UrY2LdwK449eEktK6sRG-5" value="SERVO #1&lt;br&gt;connecté" style="rhombus;whiteSpace=wrap;html=1;fillColor=#FFFFFF;" vertex="1" parent="1">
          <mxGeometry x="400" y="-960" width="80" height="80" as="geometry" />
        </mxCell>
        <mxCell id="UrY2LdwK449eEktK6sRG-6" style="edgeStyle=orthogonalEdgeStyle;rounded=0;orthogonalLoop=1;jettySize=auto;html=1;exitX=0;exitY=0.5;exitDx=0;exitDy=0;entryX=1;entryY=0.5;entryDx=0;entryDy=0;" edge="1" parent="1" source="UrY2LdwK449eEktK6sRG-8">
          <mxGeometry relative="1" as="geometry">
            <mxPoint x="370" y="-780" as="targetPoint" />
          </mxGeometry>
        </mxCell>
        <mxCell id="UrY2LdwK449eEktK6sRG-7" style="edgeStyle=orthogonalEdgeStyle;rounded=0;orthogonalLoop=1;jettySize=auto;html=1;exitX=0.5;exitY=1;exitDx=0;exitDy=0;entryX=0.5;entryY=0;entryDx=0;entryDy=0;" edge="1" parent="1" source="UrY2LdwK449eEktK6sRG-8" target="UrY2LdwK449eEktK6sRG-13">
          <mxGeometry relative="1" as="geometry" />
        </mxCell>
        <mxCell id="UrY2LdwK449eEktK6sRG-8" value="SERVO #2&lt;br&gt;connecté" style="rhombus;whiteSpace=wrap;html=1;fillColor=#FFFFFF;" vertex="1" parent="1">
          <mxGeometry x="400" y="-820" width="80" height="80" as="geometry" />
        </mxCell>
        <mxCell id="UrY2LdwK449eEktK6sRG-9" style="edgeStyle=orthogonalEdgeStyle;rounded=0;orthogonalLoop=1;jettySize=auto;html=1;exitX=0;exitY=0.5;exitDx=0;exitDy=0;entryX=0.5;entryY=0;entryDx=0;entryDy=0;" edge="1" parent="1" target="UrY2LdwK449eEktK6sRG-11">
          <mxGeometry relative="1" as="geometry">
            <mxPoint x="310" y="-920" as="sourcePoint" />
          </mxGeometry>
        </mxCell>
        <mxCell id="UrY2LdwK449eEktK6sRG-10" style="edgeStyle=orthogonalEdgeStyle;rounded=0;orthogonalLoop=1;jettySize=auto;html=1;exitX=0;exitY=0.5;exitDx=0;exitDy=0;entryX=0.5;entryY=1;entryDx=0;entryDy=0;" edge="1" parent="1" target="UrY2LdwK449eEktK6sRG-11">
          <mxGeometry relative="1" as="geometry">
            <mxPoint x="310" y="-780" as="sourcePoint" />
          </mxGeometry>
        </mxCell>
        <mxCell id="UrY2LdwK449eEktK6sRG-11" value="Allumer la led orange" style="rounded=1;whiteSpace=wrap;html=1;fillColor=#FFFFFF;" vertex="1" parent="1">
          <mxGeometry x="180" y="-880" width="100" height="50" as="geometry" />
        </mxCell>
        <mxCell id="UrY2LdwK449eEktK6sRG-12" style="edgeStyle=orthogonalEdgeStyle;rounded=0;orthogonalLoop=1;jettySize=auto;html=1;exitX=0.5;exitY=1;exitDx=0;exitDy=0;entryX=0.5;entryY=0;entryDx=0;entryDy=0;" edge="1" parent="1" source="UrY2LdwK449eEktK6sRG-13">
          <mxGeometry relative="1" as="geometry">
            <mxPoint x="440" y="-614" as="targetPoint" />
          </mxGeometry>
        </mxCell>
        <mxCell id="UrY2LdwK449eEktK6sRG-13" value="Allumer la led VERTE" style="rounded=1;whiteSpace=wrap;html=1;fillColor=#FFFFFF;" vertex="1" parent="1">
          <mxGeometry x="395" y="-690" width="90" height="40" as="geometry" />
        </mxCell>
        <mxCell id="UrY2LdwK449eEktK6sRG-14" value="oui" style="text;html=1;strokeColor=none;fillColor=none;align=center;verticalAlign=middle;whiteSpace=wrap;rounded=0;" vertex="1" parent="1">
          <mxGeometry x="440" y="-860" width="40" height="20" as="geometry" />
        </mxCell>
        <mxCell id="UrY2LdwK449eEktK6sRG-15" value="non" style="text;html=1;strokeColor=none;fillColor=none;align=center;verticalAlign=middle;whiteSpace=wrap;rounded=0;" vertex="1" parent="1">
          <mxGeometry x="320" y="-930" width="40" height="20" as="geometry" />
        </mxCell>
        <mxCell id="UrY2LdwK449eEktK6sRG-16" value="non" style="text;html=1;strokeColor=none;fillColor=none;align=center;verticalAlign=middle;whiteSpace=wrap;rounded=0;" vertex="1" parent="1">
          <mxGeometry x="320" y="-790" width="40" height="20" as="geometry" />
        </mxCell>
        <mxCell id="UrY2LdwK449eEktK6sRG-17" value="oui" style="text;html=1;strokeColor=none;fillColor=none;align=center;verticalAlign=middle;whiteSpace=wrap;rounded=0;" vertex="1" parent="1">
          <mxGeometry x="430" y="-730" width="40" height="20" as="geometry" />
        </mxCell>
        <mxCell id="UrY2LdwK449eEktK6sRG-18" style="edgeStyle=orthogonalEdgeStyle;rounded=0;orthogonalLoop=1;jettySize=auto;html=1;exitX=0;exitY=0.5;exitDx=0;exitDy=0;entryX=0;entryY=0.5;entryDx=0;entryDy=0;" edge="1" parent="1" source="UrY2LdwK449eEktK6sRG-20" target="UrY2LdwK449eEktK6sRG-21">
          <mxGeometry relative="1" as="geometry">
            <Array as="points">
              <mxPoint x="340" y="-445" />
              <mxPoint x="340" y="-584" />
            </Array>
          </mxGeometry>
        </mxCell>
        <mxCell id="UrY2LdwK449eEktK6sRG-19" style="edgeStyle=orthogonalEdgeStyle;rounded=0;orthogonalLoop=1;jettySize=auto;html=1;exitX=1;exitY=0.5;exitDx=0;exitDy=0;entryX=-0.01;entryY=0.433;entryDx=0;entryDy=0;entryPerimeter=0;" edge="1" parent="1" source="UrY2LdwK449eEktK6sRG-20" target="UrY2LdwK449eEktK6sRG-43">
          <mxGeometry relative="1" as="geometry">
            <mxPoint x="550" y="-445" as="targetPoint" />
          </mxGeometry>
        </mxCell>
        <mxCell id="UrY2LdwK449eEktK6sRG-20" value="&lt;span&gt;Servos position initiale&lt;/span&gt;" style="rhombus;whiteSpace=wrap;html=1;fillColor=#FFFFFF;" vertex="1" parent="1">
          <mxGeometry x="387.5" y="-500" width="105" height="110" as="geometry" />
        </mxCell>
        <mxCell id="UrY2LdwK449eEktK6sRG-37" value="" style="edgeStyle=orthogonalEdgeStyle;rounded=0;orthogonalLoop=1;jettySize=auto;html=1;" edge="1" parent="1" source="UrY2LdwK449eEktK6sRG-21" target="UrY2LdwK449eEktK6sRG-20">
          <mxGeometry relative="1" as="geometry" />
        </mxCell>
        <mxCell id="UrY2LdwK449eEktK6sRG-21" value="&lt;span&gt;Initialiser les servos du sytème en postion initale&lt;/span&gt;" style="rounded=1;whiteSpace=wrap;html=1;fillColor=#FFFFFF;" vertex="1" parent="1">
          <mxGeometry x="380" y="-614" width="120" height="60" as="geometry" />
        </mxCell>
        <mxCell id="UrY2LdwK449eEktK6sRG-22" value="non" style="text;html=1;strokeColor=none;fillColor=none;align=center;verticalAlign=middle;whiteSpace=wrap;rounded=0;" vertex="1" parent="1">
          <mxGeometry x="300" y="-530" width="40" height="20" as="geometry" />
        </mxCell>
        <mxCell id="UrY2LdwK449eEktK6sRG-30" style="edgeStyle=orthogonalEdgeStyle;rounded=0;orthogonalLoop=1;jettySize=auto;html=1;exitX=0.383;exitY=0.967;exitDx=0;exitDy=0;entryX=0.5;entryY=1;entryDx=0;entryDy=0;exitPerimeter=0;" edge="1" parent="1" source="UrY2LdwK449eEktK6sRG-68" target="UrY2LdwK449eEktK6sRG-34">
          <mxGeometry relative="1" as="geometry">
            <mxPoint x="665" y="975" as="sourcePoint" />
          </mxGeometry>
        </mxCell>
        <mxCell id="UrY2LdwK449eEktK6sRG-34" value="" style="ellipse;whiteSpace=wrap;html=1;aspect=fixed;fillColor=#FFFFFF;" vertex="1" parent="1">
          <mxGeometry x="747" y="850" width="80" height="80" as="geometry" />
        </mxCell>
        <mxCell id="UrY2LdwK449eEktK6sRG-35" value="" style="ellipse;whiteSpace=wrap;html=1;aspect=fixed;fillColor=#33001A;" vertex="1" parent="1">
          <mxGeometry x="752" y="855" width="70" height="70" as="geometry" />
        </mxCell>
        <mxCell id="UrY2LdwK449eEktK6sRG-73" style="edgeStyle=orthogonalEdgeStyle;rounded=0;orthogonalLoop=1;jettySize=auto;html=1;exitX=1;exitY=1;exitDx=0;exitDy=0;entryX=0;entryY=0;entryDx=0;entryDy=0;" edge="1" parent="1" source="UrY2LdwK449eEktK6sRG-38" target="UrY2LdwK449eEktK6sRG-61">
          <mxGeometry relative="1" as="geometry">
            <Array as="points">
              <mxPoint x="550" y="-264" />
              <mxPoint x="550" y="-163" />
            </Array>
          </mxGeometry>
        </mxCell>
        <mxCell id="UrY2LdwK449eEktK6sRG-38" value="Capteur #1 reçoit de la lumière" style="rhombus;whiteSpace=wrap;html=1;perimeterSpacing=1;strokeWidth=1;" vertex="1" parent="1">
          <mxGeometry x="400" y="-340" width="100" height="100" as="geometry" />
        </mxCell>
        <mxCell id="UrY2LdwK449eEktK6sRG-74" style="edgeStyle=orthogonalEdgeStyle;rounded=0;orthogonalLoop=1;jettySize=auto;html=1;exitX=1;exitY=1;exitDx=0;exitDy=0;entryX=0.334;entryY=0.125;entryDx=0;entryDy=0;entryPerimeter=0;" edge="1" parent="1" source="UrY2LdwK449eEktK6sRG-39" target="UrY2LdwK449eEktK6sRG-61">
          <mxGeometry relative="1" as="geometry" />
        </mxCell>
        <mxCell id="UrY2LdwK449eEktK6sRG-39" value="&lt;span&gt;Capteur 2# reçoit de la lumière&lt;/span&gt;" style="rhombus;whiteSpace=wrap;html=1;perimeterSpacing=1;strokeWidth=1;" vertex="1" parent="1">
          <mxGeometry x="600" y="-340" width="100" height="100" as="geometry" />
        </mxCell>
        <mxCell id="UrY2LdwK449eEktK6sRG-75" style="edgeStyle=orthogonalEdgeStyle;rounded=0;orthogonalLoop=1;jettySize=auto;html=1;exitX=0.5;exitY=1;exitDx=0;exitDy=0;" edge="1" parent="1" source="UrY2LdwK449eEktK6sRG-40" target="UrY2LdwK449eEktK6sRG-61">
          <mxGeometry relative="1" as="geometry" />
        </mxCell>
        <mxCell id="UrY2LdwK449eEktK6sRG-40" value="&lt;span&gt;Capteur 3# reçoit de la lumière&lt;/span&gt;" style="rhombus;whiteSpace=wrap;html=1;perimeterSpacing=1;strokeWidth=1;" vertex="1" parent="1">
          <mxGeometry x="770" y="-340" width="100" height="100" as="geometry" />
        </mxCell>
        <mxCell id="UrY2LdwK449eEktK6sRG-76" style="edgeStyle=orthogonalEdgeStyle;rounded=0;orthogonalLoop=1;jettySize=auto;html=1;exitX=0.5;exitY=1;exitDx=0;exitDy=0;entryX=0.775;entryY=0.358;entryDx=0;entryDy=0;entryPerimeter=0;" edge="1" parent="1" source="UrY2LdwK449eEktK6sRG-41" target="UrY2LdwK449eEktK6sRG-61">
          <mxGeometry relative="1" as="geometry">
            <Array as="points">
              <mxPoint x="1020" y="-200" />
              <mxPoint x="770" y="-200" />
            </Array>
          </mxGeometry>
        </mxCell>
        <mxCell id="UrY2LdwK449eEktK6sRG-41" value="&lt;span&gt;Capteur 4# reçoit de la lumière&lt;/span&gt;" style="rhombus;whiteSpace=wrap;html=1;perimeterSpacing=1;strokeWidth=1;" vertex="1" parent="1">
          <mxGeometry x="970" y="-340" width="100" height="100" as="geometry" />
        </mxCell>
        <mxCell id="UrY2LdwK449eEktK6sRG-44" style="edgeStyle=orthogonalEdgeStyle;rounded=0;orthogonalLoop=1;jettySize=auto;html=1;exitX=0;exitY=0.75;exitDx=0;exitDy=0;entryX=0.5;entryY=0;entryDx=0;entryDy=0;" edge="1" parent="1" source="UrY2LdwK449eEktK6sRG-43" target="UrY2LdwK449eEktK6sRG-38">
          <mxGeometry relative="1" as="geometry" />
        </mxCell>
        <mxCell id="UrY2LdwK449eEktK6sRG-45" style="edgeStyle=orthogonalEdgeStyle;rounded=0;orthogonalLoop=1;jettySize=auto;html=1;exitX=0.25;exitY=1;exitDx=0;exitDy=0;entryX=0.5;entryY=0;entryDx=0;entryDy=0;" edge="1" parent="1" source="UrY2LdwK449eEktK6sRG-43" target="UrY2LdwK449eEktK6sRG-39">
          <mxGeometry relative="1" as="geometry">
            <Array as="points">
              <mxPoint x="650" y="-360" />
            </Array>
          </mxGeometry>
        </mxCell>
        <mxCell id="UrY2LdwK449eEktK6sRG-47" style="edgeStyle=orthogonalEdgeStyle;rounded=0;orthogonalLoop=1;jettySize=auto;html=1;exitX=1;exitY=0.75;exitDx=0;exitDy=0;entryX=0.5;entryY=0;entryDx=0;entryDy=0;" edge="1" parent="1" source="UrY2LdwK449eEktK6sRG-43" target="UrY2LdwK449eEktK6sRG-40">
          <mxGeometry relative="1" as="geometry" />
        </mxCell>
        <mxCell id="UrY2LdwK449eEktK6sRG-48" style="edgeStyle=orthogonalEdgeStyle;rounded=0;orthogonalLoop=1;jettySize=auto;html=1;exitX=1;exitY=0.5;exitDx=0;exitDy=0;entryX=0.5;entryY=0;entryDx=0;entryDy=0;" edge="1" parent="1" source="UrY2LdwK449eEktK6sRG-43" target="UrY2LdwK449eEktK6sRG-41">
          <mxGeometry relative="1" as="geometry" />
        </mxCell>
        <mxCell id="UrY2LdwK449eEktK6sRG-43" value="Regarder si les capteurs sont activés" style="rounded=1;whiteSpace=wrap;html=1;strokeWidth=1;" vertex="1" parent="1">
          <mxGeometry x="690" y="-420" width="120" height="60" as="geometry" />
        </mxCell>
        <mxCell id="UrY2LdwK449eEktK6sRG-64" style="edgeStyle=orthogonalEdgeStyle;rounded=0;orthogonalLoop=1;jettySize=auto;html=1;exitX=0.5;exitY=1;exitDx=0;exitDy=0;entryX=0.5;entryY=0.08;entryDx=0;entryDy=0;entryPerimeter=0;" edge="1" parent="1" source="UrY2LdwK449eEktK6sRG-61" target="UrY2LdwK449eEktK6sRG-57">
          <mxGeometry relative="1" as="geometry">
            <mxPoint x="740" y="80" as="sourcePoint" />
          </mxGeometry>
        </mxCell>
        <mxCell id="UrY2LdwK449eEktK6sRG-65" style="edgeStyle=orthogonalEdgeStyle;rounded=0;orthogonalLoop=1;jettySize=auto;html=1;exitX=0.5;exitY=1;exitDx=0;exitDy=0;entryX=0.5;entryY=0;entryDx=0;entryDy=0;" edge="1" parent="1" source="UrY2LdwK449eEktK6sRG-57" target="UrY2LdwK449eEktK6sRG-58">
          <mxGeometry relative="1" as="geometry" />
        </mxCell>
        <mxCell id="UrY2LdwK449eEktK6sRG-112" style="edgeStyle=orthogonalEdgeStyle;rounded=0;orthogonalLoop=1;jettySize=auto;html=1;exitX=0;exitY=0.5;exitDx=0;exitDy=0;entryX=1;entryY=0.5;entryDx=0;entryDy=0;" edge="1" parent="1" source="UrY2LdwK449eEktK6sRG-57" target="UrY2LdwK449eEktK6sRG-110">
          <mxGeometry relative="1" as="geometry" />
        </mxCell>
        <mxCell id="UrY2LdwK449eEktK6sRG-57" value="Si deux capteurs sont allumés" style="rhombus;whiteSpace=wrap;html=1;strokeWidth=1;" vertex="1" parent="1">
          <mxGeometry x="690" y="160" width="100" height="100" as="geometry" />
        </mxCell>
        <mxCell id="UrY2LdwK449eEktK6sRG-67" style="edgeStyle=orthogonalEdgeStyle;rounded=0;orthogonalLoop=1;jettySize=auto;html=1;exitX=0.5;exitY=1;exitDx=0;exitDy=0;entryX=0.5;entryY=0;entryDx=0;entryDy=0;" edge="1" parent="1" source="UrY2LdwK449eEktK6sRG-58" target="UrY2LdwK449eEktK6sRG-66">
          <mxGeometry relative="1" as="geometry" />
        </mxCell>
        <mxCell id="UrY2LdwK449eEktK6sRG-114" style="edgeStyle=orthogonalEdgeStyle;rounded=0;orthogonalLoop=1;jettySize=auto;html=1;exitX=0;exitY=0.5;exitDx=0;exitDy=0;entryX=1;entryY=0.5;entryDx=0;entryDy=0;" edge="1" parent="1" source="UrY2LdwK449eEktK6sRG-58" target="UrY2LdwK449eEktK6sRG-109">
          <mxGeometry relative="1" as="geometry" />
        </mxCell>
        <mxCell id="UrY2LdwK449eEktK6sRG-58" value="Si trois capteurs sont allumés" style="rhombus;whiteSpace=wrap;html=1;strokeWidth=1;" vertex="1" parent="1">
          <mxGeometry x="690" y="350" width="100" height="100" as="geometry" />
        </mxCell>
        <mxCell id="UrY2LdwK449eEktK6sRG-62" style="edgeStyle=orthogonalEdgeStyle;rounded=0;orthogonalLoop=1;jettySize=auto;html=1;exitX=0;exitY=0.5;exitDx=0;exitDy=0;entryX=0;entryY=1;entryDx=0;entryDy=0;" edge="1" parent="1" source="UrY2LdwK449eEktK6sRG-61" target="UrY2LdwK449eEktK6sRG-20">
          <mxGeometry relative="1" as="geometry">
            <Array as="points">
              <mxPoint x="360" y="-135" />
              <mxPoint x="360" y="-417" />
            </Array>
          </mxGeometry>
        </mxCell>
        <mxCell id="UrY2LdwK449eEktK6sRG-61" value="Si 0 capteurs sont allumé" style="rhombus;whiteSpace=wrap;html=1;strokeWidth=1;" vertex="1" parent="1">
          <mxGeometry x="685" y="-190" width="110" height="110" as="geometry" />
        </mxCell>
        <mxCell id="UrY2LdwK449eEktK6sRG-104" style="edgeStyle=orthogonalEdgeStyle;rounded=0;orthogonalLoop=1;jettySize=auto;html=1;exitX=0.5;exitY=1;exitDx=0;exitDy=0;entryX=0.5;entryY=0;entryDx=0;entryDy=0;" edge="1" parent="1" source="UrY2LdwK449eEktK6sRG-66" target="UrY2LdwK449eEktK6sRG-68">
          <mxGeometry relative="1" as="geometry" />
        </mxCell>
        <mxCell id="UrY2LdwK449eEktK6sRG-117" style="edgeStyle=orthogonalEdgeStyle;rounded=0;orthogonalLoop=1;jettySize=auto;html=1;exitX=0;exitY=0.5;exitDx=0;exitDy=0;" edge="1" parent="1" source="UrY2LdwK449eEktK6sRG-66" target="UrY2LdwK449eEktK6sRG-108">
          <mxGeometry relative="1" as="geometry" />
        </mxCell>
        <mxCell id="UrY2LdwK449eEktK6sRG-66" value="Si 4 capteurs capteurs sont allumés" style="rhombus;whiteSpace=wrap;html=1;strokeWidth=1;" vertex="1" parent="1">
          <mxGeometry x="690" y="550" width="100" height="100" as="geometry" />
        </mxCell>
        <mxCell id="UrY2LdwK449eEktK6sRG-72" style="edgeStyle=orthogonalEdgeStyle;rounded=0;orthogonalLoop=1;jettySize=auto;html=1;exitX=1;exitY=0.5;exitDx=0;exitDy=0;entryX=1;entryY=0.25;entryDx=0;entryDy=0;" edge="1" parent="1" source="UrY2LdwK449eEktK6sRG-68" target="UrY2LdwK449eEktK6sRG-43">
          <mxGeometry relative="1" as="geometry">
            <Array as="points">
              <mxPoint x="1320" y="770" />
              <mxPoint x="1320" y="-405" />
            </Array>
          </mxGeometry>
        </mxCell>
        <mxCell id="UrY2LdwK449eEktK6sRG-68" value="Attendre 5 min" style="rounded=1;whiteSpace=wrap;html=1;strokeWidth=1;" vertex="1" parent="1">
          <mxGeometry x="680" y="740" width="120" height="60" as="geometry" />
        </mxCell>
        <mxCell id="UrY2LdwK449eEktK6sRG-81" value="oui" style="text;html=1;strokeColor=none;fillColor=none;align=center;verticalAlign=middle;whiteSpace=wrap;rounded=0;" vertex="1" parent="1">
          <mxGeometry x="492.5" y="-130" width="40" height="20" as="geometry" />
        </mxCell>
        <mxCell id="UrY2LdwK449eEktK6sRG-82" value="non" style="text;html=1;strokeColor=none;fillColor=none;align=center;verticalAlign=middle;whiteSpace=wrap;rounded=0;" vertex="1" parent="1">
          <mxGeometry x="700" y="-70" width="40" height="20" as="geometry" />
        </mxCell>
        <mxCell id="UrY2LdwK449eEktK6sRG-83" value="oui" style="text;html=1;strokeColor=none;fillColor=none;align=center;verticalAlign=middle;whiteSpace=wrap;rounded=0;" vertex="1" parent="1">
          <mxGeometry x="770" y="-240" width="40" height="20" as="geometry" />
        </mxCell>
        <mxCell id="UrY2LdwK449eEktK6sRG-84" value="oui" style="text;html=1;strokeColor=none;fillColor=none;align=center;verticalAlign=middle;whiteSpace=wrap;rounded=0;" vertex="1" parent="1">
          <mxGeometry x="660" y="-250" width="40" height="20" as="geometry" />
        </mxCell>
        <mxCell id="UrY2LdwK449eEktK6sRG-96" value="oui" style="text;html=1;strokeColor=none;fillColor=none;align=center;verticalAlign=middle;whiteSpace=wrap;rounded=0;" vertex="1" parent="1">
          <mxGeometry x="560" y="-190" width="40" height="20" as="geometry" />
        </mxCell>
        <mxCell id="UrY2LdwK449eEktK6sRG-97" value="oui" style="text;html=1;strokeColor=none;fillColor=none;align=center;verticalAlign=middle;whiteSpace=wrap;rounded=0;" vertex="1" parent="1">
          <mxGeometry x="950" y="-220" width="40" height="20" as="geometry" />
        </mxCell>
        <mxCell id="UrY2LdwK449eEktK6sRG-99" value="oui" style="text;html=1;strokeColor=none;fillColor=none;align=center;verticalAlign=middle;whiteSpace=wrap;rounded=0;" vertex="1" parent="1">
          <mxGeometry x="560" y="-470" width="40" height="20" as="geometry" />
        </mxCell>
        <mxCell id="UrY2LdwK449eEktK6sRG-100" value="oui&lt;span style=&quot;color: rgba(0 , 0 , 0 , 0) ; font-family: monospace ; font-size: 0px&quot;&gt;%3CmxGraphModel%3E%3Croot%3E%3CmxCell%20id%3D%220%22%2F%3E%3CmxCell%20id%3D%221%22%20parent%3D%220%22%2F%3E%3CmxCell%20id%3D%222%22%20value%3D%22Text%22%20style%3D%22text%3Bhtml%3D1%3BstrokeColor%3Dnone%3BfillColor%3Dnone%3Balign%3Dcenter%3BverticalAlign%3Dmiddle%3BwhiteSpace%3Dwrap%3Brounded%3D0%3B%22%20vertex%3D%221%22%20parent%3D%221%22%3E%3CmxGeometry%20x%3D%22550%22%20y%3D%22-90%22%20width%3D%2240%22%20height%3D%2220%22%20as%3D%22geometry%22%2F%3E%3C%2FmxCell%3E%3C%2Froot%3E%3C%2FmxGraphModel%3E&lt;/span&gt;" style="text;html=1;strokeColor=none;fillColor=none;align=center;verticalAlign=middle;whiteSpace=wrap;rounded=0;" vertex="1" parent="1">
          <mxGeometry x="700" y="290" width="40" height="20" as="geometry" />
        </mxCell>
        <mxCell id="UrY2LdwK449eEktK6sRG-102" value="oui" style="text;html=1;strokeColor=none;fillColor=none;align=center;verticalAlign=middle;whiteSpace=wrap;rounded=0;" vertex="1" parent="1">
          <mxGeometry x="690" y="490" width="40" height="20" as="geometry" />
        </mxCell>
        <mxCell id="UrY2LdwK449eEktK6sRG-103" value="oui" style="text;html=1;strokeColor=none;fillColor=none;align=center;verticalAlign=middle;whiteSpace=wrap;rounded=0;" vertex="1" parent="1">
          <mxGeometry x="700" y="680" width="40" height="20" as="geometry" />
        </mxCell>
        <mxCell id="UrY2LdwK449eEktK6sRG-108" value="aFaire pivoter avec un servo de 1°" style="rounded=1;whiteSpace=wrap;html=1;strokeWidth=1;" vertex="1" parent="1">
          <mxGeometry x="485" y="570" width="120" height="60" as="geometry" />
        </mxCell>
        <mxCell id="UrY2LdwK449eEktK6sRG-109" value="Faire pivoter avec les deux servos de 1° avec les deux servos&amp;nbsp;" style="rounded=1;whiteSpace=wrap;html=1;strokeWidth=1;" vertex="1" parent="1">
          <mxGeometry x="492.5" y="370" width="120" height="60" as="geometry" />
        </mxCell>
        <mxCell id="UrY2LdwK449eEktK6sRG-110" value="&lt;span&gt;Faire pivoter avec les deux servos vers le capteur allumé&lt;/span&gt;" style="rounded=1;whiteSpace=wrap;html=1;strokeWidth=1;" vertex="1" parent="1">
          <mxGeometry x="485" y="180" width="120" height="60" as="geometry" />
        </mxCell>
        <mxCell id="UrY2LdwK449eEktK6sRG-113" value="non" style="text;html=1;strokeColor=none;fillColor=none;align=center;verticalAlign=middle;whiteSpace=wrap;rounded=0;" vertex="1" parent="1">
          <mxGeometry x="630" y="180" width="40" height="20" as="geometry" />
        </mxCell>
        <mxCell id="UrY2LdwK449eEktK6sRG-115" value="non" style="text;html=1;strokeColor=none;fillColor=none;align=center;verticalAlign=middle;whiteSpace=wrap;rounded=0;" vertex="1" parent="1">
          <mxGeometry x="630" y="380" width="40" height="20" as="geometry" />
        </mxCell>
        <mxCell id="UrY2LdwK449eEktK6sRG-116" value="non" style="text;html=1;strokeColor=none;fillColor=none;align=center;verticalAlign=middle;whiteSpace=wrap;rounded=0;" vertex="1" parent="1">
          <mxGeometry x="630" y="575" width="40" height="20" as="geometry" />
        </mxCell>
      </root>
    </mxGraphModel>
  </diagram>
</mxfile>
